<svg viewBox="0 0 1365 1024" xmlns="http://www.w3.org/2000/svg">
  <path d="M784.782222 28.444444c66.389333 0 100.693333 6.599111 136.419556 25.713778a186.083556 186.083556 0 0 1 77.084444 77.084445c18.432 34.474667 25.201778 67.584 25.713778 129.422222v27.022222l207.303111-144.042667a85.333333 85.333333 0 0 1 113.777778 14.791112l5.006222 6.542222a85.333333 85.333333 0 0 1 15.246222 48.753778V809.528889a85.333333 85.333333 0 0 1-134.826666 69.575111L1024 732.273778v24.064c0 61.269333-5.688889 95.232-21.504 128.170666l-4.209778 8.248889a186.083556 186.083556 0 0 1-77.084444 77.084445c-34.474667 18.432-67.584 25.201778-129.422222 25.713778H239.217778c-66.389333 0-100.693333-6.599111-136.419556-25.713778a186.083556 186.083556 0 0 1-77.084444-77.084445c-18.090667-33.848889-24.974222-66.389333-25.656889-126.293333L0 759.466667V267.662222c0-66.389333 6.599111-100.693333 25.713778-136.419555A186.083556 186.083556 0 0 1 102.798222 54.158222C136.647111 36.067556 169.187556 29.184 229.091556 28.501333L236.088889 28.444444z m0 113.777778H236.259556c-45.226667 0.170667-61.838222 3.128889-77.880889 11.264l-1.877334 1.024c-13.312 7.054222-23.324444 17.123556-30.435555 30.435556C116.963556 201.898667 113.777778 218.453333 113.777778 267.662222v491.633778c0.170667 45.226667 3.128889 61.838222 11.264 77.880889l1.024 1.877333c7.054222 13.312 17.123556 23.324444 30.435555 30.435556 16.952889 9.102222 33.507556 12.288 82.716445 12.288h545.564444c47.388444 0 64.512-2.958222 80.839111-11.264l1.877334-1.024c13.312-7.054222 23.324444-17.123556 30.435555-30.435556 9.102222-16.952889 12.288-33.507556 12.288-82.716444v-488.675556c0-47.388444-2.958222-64.512-11.264-80.839111l-1.024-1.877333a72.362667 72.362667 0 0 0-30.435555-30.435556c-16.952889-9.102222-33.507556-12.288-82.716445-12.288zM1251.555556 268.117333l-227.555556 158.208v166.4l227.555556 161.735111V268.117333z" fill="#191F24"/>
</svg>
