<svg viewBox="0 0 24 24" fill="none" xmlns="http://www.w3.org/2000/svg"><path fill-rule="evenodd" clip-rule="evenodd" d="M8.28142 5.18618L7.08662 3.39229C6.77792 2.9288 6.9034 2.30281 7.36689 1.99411C7.83039 1.6854 8.45638 1.81089 8.76508 2.27438L10.5319 4.92716C10.5768 4.9945 10.6125 5.06527 10.6393 5.13799C11.1174 5.13169 11.5675 5.12827 11.9896 5.12772L12 5.12765L12.0544 5.12766L12.1088 5.12765L12.1192 5.12772C12.4115 5.1281 12.7172 5.12986 13.0363 5.13299C13.067 5.05116 13.1088 4.97199 13.1623 4.89763L15.0689 2.24485C15.3939 1.79264 16.024 1.68953 16.4762 2.01454C16.9284 2.33955 17.0315 2.96961 16.7065 3.42182L15.4455 5.17635C16.2897 5.19733 17.2002 5.22507 18.1769 5.25958C19.9731 5.32304 21.3759 6.72997 21.6308 8.50919C21.7162 9.10539 21.7578 10.6458 21.7884 11.7781C21.7974 12.1111 21.8055 12.4088 21.8134 12.6368C21.8266 13.0162 21.5297 13.3345 21.1502 13.3477C20.7708 13.3609 20.4524 13.064 20.4392 12.6845C20.4313 12.4551 20.4233 12.1482 20.4143 11.8042C20.386 10.7137 20.348 9.25085 20.2696 8.70415C20.1092 7.5839 19.2593 6.67368 18.1283 6.63372C15.6823 6.5473 13.6573 6.50363 12.0544 6.50266C10.4515 6.50363 8.42652 6.5473 5.98047 6.63372C4.84949 6.67368 3.90958 7.51808 3.74912 8.63833C3.59742 9.69741 3.52084 11.014 3.52084 12.5849C3.52084 14.4699 3.63107 16.0862 3.84998 17.4315C4.02705 18.5198 4.94043 19.3363 6.04161 19.3908C7.91755 19.4836 9.30361 19.53 11.4724 19.53C11.8521 19.53 12.1599 19.8378 12.1599 20.2175C12.1599 20.5972 11.8521 20.905 11.4724 20.905C9.28169 20.905 7.87309 20.8581 5.97366 20.7641C4.22473 20.6776 2.77406 19.3807 2.49283 17.6524C2.26099 16.2276 2.14584 14.5392 2.14584 12.5849C2.14584 10.9534 2.22608 9.57387 2.38801 8.44338C2.64285 6.66416 4.13566 5.32304 5.93192 5.25958C6.76304 5.23021 7.5462 5.20575 8.28142 5.18618ZM12.5105 9.60362H11.1905V14.2346H13.4125V15.0816H10.7945V16.1596H13.4125L13.4152 16.8373C13.7755 16.8635 14.129 16.9998 14.425 17.2443H14.5345V16.1596H17.2295V15.0816H14.5345V14.2346H16.8005V9.60362H15.5245C15.7995 9.18562 16.0525 8.71262 16.2725 8.18462L15.1835 7.79962C14.9415 8.43762 14.6775 9.04262 14.3695 9.60362H12.8515L13.5445 9.29562C13.3135 8.78962 13.0385 8.32762 12.7305 7.88762L11.6855 8.23962C11.9825 8.63562 12.2575 9.08662 12.5105 9.60362ZM8.33053 13.1676L8.48453 11.6826H10.4645V8.29462H7.26353V9.27362H9.33153V10.7036H7.47253L7.16453 14.1576H9.44153C9.44153 15.3236 9.39753 16.0826 9.32053 16.4346C9.24353 16.7866 8.93553 16.9626 8.38553 16.9626C8.07753 16.9626 7.76953 16.9406 7.48353 16.9076L7.78053 17.9746L7.84208 17.979C8.12681 17.9995 8.39367 18.0186 8.66053 18.0186C9.66153 17.9526 10.2225 17.6006 10.3545 16.9626C10.4645 16.3246 10.5305 15.0596 10.5305 13.1676H8.33053ZM15.7885 13.2776V12.4196H14.5345V13.2776H15.7885ZM13.4125 12.4196V13.2776H12.2135V12.4196H13.4125ZM12.2135 11.4736H13.4125V10.5716H12.2135V11.4736ZM14.5345 11.4736V10.5716H15.7885V11.4736H14.5345Z" fill="white"></path><path d="M21.6199 14.869C21.8969 14.561 22.3712 14.5359 22.6791 14.813C22.9591 15.0648 23.0052 15.4796 22.8032 15.7843L22.7351 15.8721L16.9306 22.3705C16.6648 22.666 16.2207 22.699 15.9154 22.4632L15.8359 22.3922L12.8796 19.3578C12.5905 19.0611 12.5967 18.5863 12.8934 18.2972C13.1631 18.0345 13.5801 18.0157 13.8708 18.2374L13.954 18.3111L16.351 20.771L21.6199 14.869Z" fill="#FF6699"></path></svg>
