<svg viewBox="0 0 24 24" fill="none" xmlns="http://www.w3.org/2000/svg"><path fill-rule="evenodd" clip-rule="evenodd" d="M7.08653 3.39235L8.28133 5.18624C7.5461 5.2058 6.76295 5.23027 5.93182 5.25963C4.13556 5.3231 2.64276 6.66421 2.38792 8.44343C2.22599 9.57393 2.14575 10.9534 2.14575 12.585C2.14575 14.5393 2.2609 16.2276 2.49273 17.6524C2.77397 19.3808 4.22464 20.6776 5.97357 20.7641C7.873 20.8581 10.3376 20.9051 12.5283 20.9051C12.908 20.9051 13.2158 20.5973 13.2158 20.2176C13.2158 19.8379 12.908 19.5301 12.5283 19.5301C10.3595 19.5301 7.91746 19.4836 6.04152 19.3908C4.94034 19.3363 4.02696 18.5198 3.84988 17.4316C3.63098 16.0863 3.52075 14.47 3.52075 12.585C3.52075 11.014 3.59733 9.69747 3.74903 8.63839C3.90948 7.51814 4.8494 6.67374 5.98038 6.63378C8.40317 6.54817 10.4129 6.50452 12.0085 6.50276C13.6041 6.50452 15.6138 6.54817 18.0366 6.63378C19.1676 6.67374 20.1075 7.51814 20.2679 8.63839C20.4196 9.69747 20.4732 11.0897 20.4732 12.6607C20.4732 13.0404 20.781 13.3482 21.1607 13.3482C21.5404 13.3482 21.8482 13.0404 21.8482 12.6607C21.8482 11.0291 21.791 9.57393 21.629 8.44343C21.3742 6.66421 19.8814 5.3231 18.0851 5.25963C17.1431 5.22635 16.2626 5.19936 15.4438 5.17867L16.7064 3.42188C17.0314 2.96967 16.9283 2.33961 16.4761 2.0146C16.0239 1.68959 15.3938 1.7927 15.0688 2.24491L13.1622 4.89769C13.1086 4.97233 13.0666 5.05182 13.0359 5.13398C12.7202 5.13065 12.4175 5.12864 12.1278 5.12796L12.1087 5.1277L12.0085 5.12776L11.9083 5.1277L11.8892 5.12796C11.4963 5.12888 11.0797 5.13224 10.6392 5.13805C10.6124 5.06532 10.5767 4.99456 10.5318 4.92722L8.76499 2.27444C8.45628 1.81094 7.8303 1.68546 7.3668 1.99416C6.90331 2.30287 6.77783 2.92886 7.08653 3.39235ZM11.2013 9.59793H12.5213C12.2683 9.08093 11.9933 8.62993 11.6963 8.23393L12.7413 7.88193C13.0493 8.32193 13.3243 8.78393 13.5553 9.28993L12.8623 9.59793H14.3803C14.6883 9.03693 14.9523 8.43193 15.1943 7.79393L16.2833 8.17893C16.0633 8.70693 15.8103 9.17993 15.5353 9.59793H16.8113V13.0393C15.1626 13.4113 13.8225 14.5979 13.2362 16.1539H10.8053V15.0759H13.4233V14.2289H11.2013V9.59793ZM8.49535 11.6769L8.34135 13.1619H10.5413C10.5413 15.0539 10.4753 16.3189 10.3653 16.9569C10.2333 17.5949 9.67235 17.9469 8.67135 18.0129C8.40449 18.0129 8.13763 17.9938 7.8529 17.9733L7.79135 17.9689L7.49435 16.9019C7.78035 16.9349 8.08835 16.9569 8.39635 16.9569C8.94635 16.9569 9.25435 16.7809 9.33135 16.4289C9.40835 16.0769 9.45235 15.3179 9.45235 14.1519H7.17535L7.48335 10.6979H9.34235V9.26793H7.27435V8.28893H10.4753V11.6769H8.49535ZM15.7993 12.4139V13.2719H14.5453V12.4139H15.7993ZM13.4233 13.2719V12.4139H12.2243V13.2719H13.4233ZM13.4233 11.4679H12.2243V10.5659H13.4233V11.4679ZM14.5453 10.5659V11.4679H15.7993V10.5659H14.5453ZM22.0624 18.0626C22.0624 20.2717 20.2716 22.0626 18.0624 22.0626C15.8533 22.0626 14.0624 20.2717 14.0624 18.0626C14.0624 15.8534 15.8533 14.0626 18.0624 14.0626C20.2716 14.0626 22.0624 15.8534 22.0624 18.0626ZM15.3256 18.0626C15.3256 19.5741 16.5509 20.7994 18.0624 20.7994C18.579 20.7994 19.0621 20.6563 19.4743 20.4076L15.7172 16.6511C15.4686 17.0632 15.3256 17.5462 15.3256 18.0626ZM20.4074 19.4746C20.6561 19.0623 20.7993 18.5792 20.7993 18.0626C20.7993 16.551 19.5739 15.3257 18.0624 15.3257C17.5456 15.3257 17.0623 15.469 16.6499 15.7179L20.4074 19.4746Z" fill="white"></path></svg>
