<svg viewBox="0 0 24 24" fill="none" xmlns="http://www.w3.org/2000/svg"><path fill-rule="evenodd" clip-rule="evenodd" d="M15.4325 5.17716L16.7042 3.40774C17.0259 2.96005 16.9239 2.33629 16.4762 2.01453C16.0285 1.69277 15.4047 1.79485 15.083 2.24254L13.1954 4.86879C13.1356 4.952 13.0905 5.04128 13.0594 5.13358C12.6865 5.12972 12.332 5.12774 11.9958 5.12764C11.995 5.12764 11.9942 5.12764 11.9934 5.12764C11.9894 5.12764 11.9854 5.12764 11.9814 5.12764C11.9774 5.12764 11.9734 5.12764 11.9694 5.12764C11.9685 5.12764 11.9677 5.12764 11.9668 5.12764C11.552 5.12777 11.1092 5.13075 10.6385 5.1366C10.6119 5.06435 10.5765 4.99404 10.5319 4.92715L8.78274 2.3009C8.47713 1.84204 7.8574 1.71781 7.39854 2.02343C6.93968 2.32904 6.81545 2.94877 7.12107 3.40763L8.30351 5.18297C7.54701 5.20276 6.73863 5.22785 5.87833 5.25825C4.10004 5.32108 2.65644 6.72012 2.40415 8.48154C2.24383 9.60074 2.1644 10.9664 2.1644 12.5817C2.1644 14.5164 2.27839 16.1879 2.50791 17.5985C2.78633 19.3095 4.232 20.6798 5.96344 20.7655C7.44086 20.8386 8.98021 20.8333 10.624 20.8277H10.6241H10.6243C11.0726 20.8262 11.5287 20.8246 11.9934 20.8246C12.3693 20.8246 12.6741 20.5199 12.6741 20.144C12.6741 19.7681 12.3693 19.4634 11.9934 19.4634C11.5258 19.4634 11.067 19.465 10.6163 19.4666H10.6163C8.99792 19.4724 7.48334 19.4778 6.03071 19.4059C4.94055 19.352 4.02679 18.4572 3.85149 17.3798C3.63477 16.048 3.52565 14.4478 3.52565 12.5817C3.52565 11.0264 3.60146 9.72304 3.75164 8.67455C3.91049 7.5655 4.80673 6.65821 5.9264 6.61865C8.3693 6.53234 10.388 6.48911 11.9814 6.48889C13.5748 6.48911 15.5935 6.53234 18.0364 6.61865C19.1561 6.65821 20.0866 7.49417 20.2454 8.60322C20.3956 9.65171 20.4243 10.1486 20.4243 11.7039C20.4243 12.0798 20.729 12.3845 21.1049 12.3845C21.4808 12.3845 21.7855 12.0798 21.7855 11.7039C21.7855 10.0887 21.7532 9.5294 21.5929 8.41021C21.3406 6.64879 19.8628 5.32108 18.0845 5.25825C17.1376 5.2248 16.2536 5.19776 15.4325 5.17716ZM11.2249 9.58372H12.5317C12.2812 9.07189 12.009 8.6254 11.7149 8.23336L12.7495 7.88488C13.0544 8.32048 13.3266 8.77786 13.5553 9.2788L12.8693 9.58372H14.3721C14.677 9.02833 14.9384 8.42938 15.1779 7.79776L16.2561 8.17891C16.0383 8.70163 15.7878 9.1699 15.5155 9.58372H16.7788V12.3398H15.2257C15.0759 12.3398 14.9299 12.3656 14.7931 12.4139H14.558V12.5244C14.3574 12.6445 14.1892 12.8185 14.076 13.0329L13.4247 14.2669V14.2266H11.2249V9.58372ZM12.9919 15.0866H10.8328V16.1539H12.4286L12.9919 15.0866ZM8.48609 11.6619L8.33363 13.2236H10.5116C10.5116 15.0967 10.4463 16.349 10.3374 16.9807C10.2067 17.6123 9.65132 17.9608 8.66033 18.0261C8.39621 18.0261 8.13209 18.0071 7.8503 17.9869L7.85016 17.9869H7.85014H7.85012H7.8501L7.78913 17.9825L7.4951 16.9262C7.77824 16.9589 8.08316 16.9807 8.38808 16.9807C8.93258 16.9807 9.2375 16.8064 9.31373 16.4579C9.38996 16.1095 9.43352 15.358 9.43352 14.2037H7.17929L7.48421 10.6927H9.32462V9.25807H7.2773V8.28886H10.4463V11.6619H8.48609ZM13.4234 13.2724V12.423H12.2364V13.2724H13.4234ZM13.4234 11.4679H12.2364V10.5749H13.4234V11.4679ZM14.558 10.5822V11.4752H15.7994V10.5822H14.558ZM16.1731 13.6052C15.725 13.6062 15.3112 13.8451 15.0862 14.2326L13.344 17.2332C13.1174 17.6234 13.1168 18.1051 13.3425 18.4959L15.064 21.4776C15.2896 21.8683 15.7068 22.1086 16.158 22.1076L20.1607 22.0988C20.6087 22.0978 21.0226 21.8589 21.2475 21.4715L22.9898 18.4708C23.2163 18.0806 23.2169 17.599 22.9913 17.2082L21.2698 14.2264C21.0442 13.8357 20.6269 13.5954 20.1758 13.5964L16.1731 13.6052ZM15.8586 15.4939C16.0855 15.114 16.4951 14.8809 16.9376 14.8799L19.4625 14.8743C19.9082 14.8733 20.3212 15.1078 20.5487 15.4909L21.5822 17.2313C21.8181 17.6285 21.8177 18.1229 21.5813 18.5197L20.5253 20.2916C20.2986 20.6721 19.8887 20.9056 19.4458 20.9066L16.9223 20.9122C16.4763 20.9132 16.063 20.6783 15.8356 20.2946L14.8013 18.5495C14.5658 18.1521 14.5666 17.6577 14.8034 17.2611L15.8586 15.4939ZM18.1625 19.3295C18.9357 19.3295 19.5625 18.7027 19.5625 17.9295C19.5625 17.1563 18.9357 16.5295 18.1625 16.5295C17.3893 16.5295 16.7625 17.1563 16.7625 17.9295C16.7625 18.7027 17.3893 19.3295 18.1625 19.3295Z" fill="white"></path></svg>
