<svg viewBox="0 0 24 24" fill="none" xmlns="http://www.w3.org/2000/svg"><path fill-rule="evenodd" clip-rule="evenodd" d="M11.5 3C11.5 2.44772 11.0523 2 10.5 2C9.9477 2 9.49998 2.44772 9.49998 3V9.49998L2.99998 9.49998C2.4477 9.49998 1.99998 9.94769 1.99998 10.5C1.99998 11.0523 2.4477 11.5 2.99998 11.5L9.49998 11.5C10.6046 11.5 11.5 10.6045 11.5 9.49998L11.5 3ZM14.5 12.5C13.3954 12.5 12.5 13.3954 12.5 14.5L12.5 21C12.5 21.5522 12.9477 22 13.5 22C14.0523 22 14.5 21.5522 14.5 21L14.5 14.5L21 14.5C21.5523 14.5 22 14.0523 22 13.5C22 12.9477 21.5523 12.5 21 12.5L14.5 12.5Z" fill="white"></path></svg>
