<svg viewBox="0 0 24 24" fill="none" xmlns="http://www.w3.org/2000/svg"><path fill-rule="evenodd" clip-rule="evenodd" d="M4.89653 3.61101C3.45291 3.17793 2 4.25893 2 5.76612V18.234C2 19.7412 3.45291 20.8222 4.89653 20.3891L9.39653 19.0391C10.3482 18.7536 11 17.8777 11 16.884V7.11612C11 6.12251 10.3482 5.24653 9.39653 4.96101L4.89653 3.61101ZM3.5 5.76612C3.5 5.26373 3.9843 4.90339 4.46551 5.04775L8.96551 6.39775C9.28275 6.49293 9.5 6.78492 9.5 7.11612V16.884C9.5 17.2152 9.28275 17.5072 8.96551 17.6024L4.46551 18.9524C3.9843 19.0968 3.5 18.7364 3.5 18.234V5.76612ZM19.7654 5.01525C19.6916 5.01396 19.6143 5.02382 19.5345 5.04775L18.9033 5.23712C18.5065 5.35614 18.0884 5.131 17.9694 4.73426C17.8504 4.33751 18.0755 3.9194 18.4722 3.80038L19.1035 3.61101C19.3324 3.54234 19.564 3.51151 19.7916 3.51548C20.2057 3.5227 20.5356 3.86429 20.5284 4.27844C20.5211 4.69259 20.1795 5.02247 19.7654 5.01525ZM15.9473 4.55785C16.3441 4.43882 16.7622 4.66396 16.8812 5.06071C17.0002 5.45745 16.7751 5.87556 16.3784 5.99459L15.7471 6.18395C15.6256 6.22041 15.5108 6.26907 15.4036 6.32826C15.041 6.52847 14.5847 6.39682 14.3845 6.0342C14.1843 5.67159 14.3159 5.21533 14.6785 5.01512C14.8783 4.90484 15.0916 4.81457 15.3161 4.74722L15.9473 4.55785ZM20.4648 5.53561C20.3389 5.141 20.5567 4.71903 20.9513 4.5931C21.3459 4.46718 21.7679 4.68499 21.8938 5.0796C21.963 5.2964 22 5.52713 22 5.76612V6.45878C22 6.873 21.6642 7.20878 21.25 7.20878C20.8358 7.20878 20.5 6.873 20.5 6.45878V5.76612C20.5 5.68283 20.4872 5.60588 20.4648 5.53561ZM13.0734 7.17248C13.161 6.76763 13.5602 6.51043 13.965 6.598C14.3699 6.68557 14.6271 7.08475 14.5395 7.4896C14.5136 7.60929 14.5 7.73328 14.5 7.86015V8.55014C14.5 8.96435 14.1642 9.30014 13.75 9.30014C13.3358 9.30014 13 8.96435 13 8.55014V7.86015C13 7.62575 13.0252 7.39547 13.0734 7.17248ZM20.5 9.22943C20.5 8.81521 20.8358 8.47943 21.25 8.47943C21.6642 8.47943 22 8.81521 22 9.22943V10.6148C22 11.029 21.6642 11.3648 21.25 11.3648C20.8358 11.3648 20.5 11.029 20.5 10.6148V9.22943ZM13 11.3101C13 10.8959 13.3358 10.5601 13.75 10.5601C14.1642 10.5601 14.5 10.8959 14.5 11.3101V12.6901C14.5 13.1043 14.1642 13.4401 13.75 13.4401C13.3358 13.4401 13 13.1043 13 12.6901V11.3101ZM20.5 13.3854C20.5 12.9712 20.8358 12.6354 21.25 12.6354C21.6642 12.6354 22 12.9712 22 13.3854V14.7707C22 15.1849 21.6642 15.5207 21.25 15.5207C20.8358 15.5207 20.5 15.1849 20.5 14.7707V13.3854ZM13 15.45C13 15.0358 13.3358 14.7 13.75 14.7C14.1642 14.7 14.5 15.0358 14.5 15.45V16.14C14.5 16.2669 14.5136 16.3909 14.5395 16.5105C14.6271 16.9154 14.3699 17.3146 13.965 17.4022C13.5602 17.4897 13.161 17.2325 13.0734 16.8277C13.0252 16.6047 13 16.3744 13 16.14V15.45ZM20.5 17.5414C20.5 17.1272 20.8358 16.7914 21.25 16.7914C21.6642 16.7914 22 17.1272 22 17.5414V18.234C22 18.473 21.963 18.7037 21.8938 18.9206C21.7679 19.3152 21.3459 19.533 20.9513 19.407C20.5567 19.2811 20.3389 18.8591 20.4648 18.4645C20.4872 18.3943 20.5 18.3173 20.5 18.234V17.5414ZM14.6785 18.985C14.3159 18.7848 14.1843 18.3286 14.3845 17.9659C14.5847 17.6033 15.041 17.4717 15.4036 17.6719C15.5108 17.7311 15.6256 17.7797 15.7471 17.8162L16.3784 18.0056C16.7751 18.1246 17.0002 18.5427 16.8812 18.9394C16.7622 19.3362 16.3441 19.5613 15.9473 19.4423L15.3161 19.2529C15.0916 19.1856 14.8783 19.0953 14.6785 18.985ZM18.4722 20.1998C18.0755 20.0807 17.8504 19.6626 17.9694 19.2659C18.0884 18.8691 18.5065 18.644 18.9033 18.763L19.5345 18.9524C19.6143 18.9763 19.6916 18.9862 19.7654 18.9849C20.1795 18.9777 20.5211 19.3076 20.5284 19.7217C20.5356 20.1359 20.2057 20.4774 19.7916 20.4847C19.564 20.4886 19.3324 20.4578 19.1035 20.3891L18.4722 20.1998Z" fill="white"></path></svg>
