<svg viewBox="0 0 24 24" fill="none" xmlns="http://www.w3.org/2000/svg"><path fill-rule="evenodd" clip-rule="evenodd" d="M12 4.99805C9.48178 4.99805 7.283 5.12615 5.73089 5.25202C4.6522 5.33949 3.81611 6.16351 3.72 7.23253C3.60607 8.4998 3.5 10.171 3.5 11.998C3.5 13.8251 3.60607 15.4963 3.72 16.7636C3.8161 17.8325 4.65243 18.6566 5.73121 18.7441C6.85323 18.8351 8.3137 18.9273 9.98883 18.9714C10.4029 18.9823 10.7297 19.3268 10.7188 19.7408C10.7079 20.1549 10.3634 20.4817 9.94937 20.4708C8.24273 20.4259 6.75465 20.332 5.60997 20.2392C3.81247 20.0934 2.38832 18.7031 2.22602 16.8979C2.10918 15.5982 2 13.8808 2 11.998C2 10.1153 2.10918 8.39787 2.22602 7.09822C2.38831 5.29311 3.81205 3.90269 5.60965 3.75692C7.19232 3.62858 9.43258 3.49805 12 3.49805C14.5677 3.49805 16.8081 3.62861 18.3908 3.75696C20.1883 3.90273 21.6118 5.29327 21.7741 7.09811C21.8459 7.89664 21.9147 8.85236 21.9571 9.90718C21.9738 10.3211 21.6518 10.6701 21.2379 10.6867C20.824 10.7034 20.475 10.3813 20.4583 9.96745C20.4171 8.94094 20.3501 8.01018 20.2801 7.23242C20.184 6.16356 19.348 5.33951 18.2696 5.25205C16.7174 5.12618 14.5185 4.99805 12 4.99805ZM12.5 15.25C12.5 13.7312 13.7312 12.5 15.25 12.5H20.25C21.7688 12.5 23 13.7312 23 15.25V18.25C23 19.7688 21.7688 21 20.25 21H15.25C13.7312 21 12.5 19.7688 12.5 18.25V15.25ZM15.25 14C14.5596 14 14 14.5596 14 15.25V18.25C14 18.9404 14.5596 19.5 15.25 19.5H20.25C20.9404 19.5 21.5 18.9404 21.5 18.25V15.25C21.5 14.5596 20.9404 14 20.25 14H15.25ZM12.0303 11.9697C12.3232 12.2626 12.3232 12.7374 12.0303 13.0303C11.7374 13.3232 11.2626 13.3232 10.9697 13.0303L8.75 10.8107V12C8.75 12.4142 8.41421 12.75 8 12.75C7.58579 12.75 7.25 12.4142 7.25 12V9C7.25 8.58579 7.58579 8.25 8 8.25H11C11.4142 8.25 11.75 8.58579 11.75 9C11.75 9.41421 11.4142 9.75 11 9.75H9.81066L12.0303 11.9697Z" fill="white"></path></svg>
