<svg viewBox="0 0 24 24" fill="none" xmlns="http://www.w3.org/2000/svg"><path fill-rule="evenodd" clip-rule="evenodd" d="M12.75 20.5C12.75 20.9142 12.4142 21.25 12 21.25C6.89137 21.25 2.75 17.1086 2.75 12C2.75 9.64808 3.62821 7.50123 5.07312 5.86963H3.01001C2.5958 5.86963 2.26001 5.53384 2.26001 5.11963C2.26001 4.70542 2.5958 4.36963 3.01001 4.36963H7.01001C7.42422 4.36963 7.76001 4.70542 7.76001 5.11963V9.11963C7.76001 9.53384 7.42422 9.86963 7.01001 9.86963C6.5958 9.86963 6.26001 9.53384 6.26001 9.11963V6.7926C5.01041 8.16902 4.25 9.99568 4.25 12C4.25 16.2802 7.71979 19.75 12 19.75C12.4142 19.75 12.75 20.0858 12.75 20.5ZM17.75 17.1963V14.8799C17.75 14.4657 17.4142 14.1299 17 14.1299C16.5858 14.1299 16.25 14.4657 16.25 14.8799V18.8799C16.25 19.2941 16.5858 19.6299 17 19.6299H21C21.4142 19.6299 21.75 19.2941 21.75 18.8799C21.75 18.4657 21.4142 18.1299 21 18.1299H18.9273C20.372 16.4983 21.25 14.3517 21.25 12C21.25 6.89137 17.1086 2.75 12 2.75C11.5858 2.75 11.25 3.08579 11.25 3.5C11.25 3.91421 11.5858 4.25 12 4.25C16.2802 4.25 19.75 7.71979 19.75 12C19.75 13.999 18.9937 15.8212 17.75 17.1963Z" fill="white"></path></svg>
