<svg viewBox="0 0 24 24" fill="none" xmlns="http://www.w3.org/2000/svg"><path fill-rule="evenodd" clip-rule="evenodd" d="M12.7815 4.28522C13.2722 3.89261 14 4.24201 14 4.87128V19.1286C14 19.7579 13.2722 20.1073 12.7815 19.7147L8.54026 16.3217C7.87534 15.7897 7.04918 15.4999 6.19766 15.4999H4.38145C4.03827 15.4999 3.79833 15.281 3.7531 15.0177C3.62929 14.2971 3.49999 13.2456 3.5 11.9999C3.50001 10.7543 3.6293 9.70279 3.7531 8.98216C3.79833 8.71888 4.03828 8.49994 4.38146 8.49994H6.19766C7.04917 8.49994 7.87534 8.21014 8.54026 7.6782L12.7815 4.28522ZM15.5 4.87128C15.5 2.98504 13.318 1.9351 11.8444 3.11392L7.60322 6.50689C7.20427 6.82606 6.70857 6.99994 6.19766 6.99994H4.38146C3.38521 6.99994 2.45632 7.67137 2.27476 8.72819C2.13963 9.51477 2.00001 10.6527 2 11.9999C1.99999 13.3472 2.13962 14.4851 2.27475 15.2717C2.45632 16.3285 3.3852 16.9999 4.38145 16.9999H6.19766C6.70857 16.9999 7.20427 17.1738 7.60322 17.493L11.8444 20.886C13.318 22.0648 15.5 21.0148 15.5 19.1286V4.87128ZM22.25 11.25H17.75C17.3358 11.25 17 11.5858 17 12C17 12.4142 17.3358 12.75 17.75 12.75H22.25C22.6642 12.75 23 12.4142 23 12C23 11.5858 22.6642 11.25 22.25 11.25ZM18.2803 14.7197L20.7803 17.2197C21.0732 17.5126 21.0732 17.9874 20.7803 18.2803C20.4874 18.5732 20.0126 18.5732 19.7197 18.2803L17.2197 15.7803C16.9268 15.4874 16.9268 15.0126 17.2197 14.7197C17.5126 14.4268 17.9874 14.4268 18.2803 14.7197ZM20.7803 6.78033C21.0732 6.48744 21.0732 6.01256 20.7803 5.71967C20.4874 5.42678 20.0126 5.42678 19.7197 5.71967L17.2197 8.21967C16.9268 8.51256 16.9268 8.98744 17.2197 9.28033C17.5126 9.57322 17.9874 9.57322 18.2803 9.28033L20.7803 6.78033Z" fill="white"></path></svg>
